<?xml version="1.0" standalone="no"?>
<!DOCTYPE svg PUBLIC "-//W3C//DTD SVG 20010904//EN"
 "http://www.w3.org/TR/2001/REC-SVG-20010904/DTD/svg10.dtd">
<svg version="1.0" xmlns="http://www.w3.org/2000/svg"
 width="1000.000000pt" height="1000.000000pt" viewBox="0 0 1000.000000 1000.000000"
 preserveAspectRatio="xMidYMid meet">
<metadata>
Created by potrace 1.11, written by Peter Selinger 2001-2013
</metadata>
<g transform="translate(0.000000,1000.000000) scale(0.100000,-0.100000)"
fill="#000000" stroke="none">
<path d="M5048 8085 c-2 -16 -3 -130 -3 -252 l1 -222 -46 26 c-350 206 -897
380 -1351 428 -30 4 -67 8 -84 11 -148 22 -617 22 -745 0 -14 -3 -52 -7 -85
-11 -33 -3 -76 -10 -95 -15 -19 -5 -51 -11 -70 -14 -176 -25 -526 -135 -740
-231 -488 -219 -928 -558 -1233 -950 -77 -98 -195 -274 -233 -345 -13 -25 -28
-52 -33 -60 -40 -73 -69 -133 -116 -245 -20 -47 -68 -191 -86 -255 -37 -135
-60 -259 -75 -408 -12 -122 -5 -378 12 -465 2 -12 6 -44 10 -71 7 -64 58 -263
89 -346 69 -186 85 -222 168 -368 158 -281 381 -536 652 -748 436 -341 977
-568 1554 -650 174 -25 235 -29 481 -29 208 0 396 8 455 19 11 2 47 7 80 10
57 6 248 33 290 40 11 2 49 9 85 16 36 7 76 14 90 16 65 11 302 67 417 99 174
49 427 141 586 214 38 17 74 33 80 34 7 1 11 -26 12 -83 l0 -85 548 0 547 0 0
95 c0 52 1 463 1 913 0 764 1 817 17 818 9 1 69 1 132 2 l115 0 2 -1016 c1
-944 0 -1017 -15 -1018 -9 0 -129 -1 -267 -2 l-250 -2 0 -523 0 -522 1223 0
1222 0 1 38 c0 20 0 255 0 522 l1 485 -239 2 c-131 1 -250 2 -264 2 l-26 1 0
1015 c0 558 3 1015 6 1016 3 0 255 2 559 2 483 2 553 0 556 -13 2 -8 7 -33 11
-55 4 -22 9 -49 11 -60 1 -11 15 -87 29 -169 14 -82 27 -151 29 -153 3 -4 636
-6 852 -4 l50 1 0 805 0 805 -3003 0 -3003 0 0 -825 c0 -454 1 -825 3 -825 1
0 25 9 53 19 46 18 80 19 448 19 219 0 399 2 401 4 1 1 6 25 10 53 3 27 10 70
15 95 5 25 11 59 14 75 3 17 10 57 16 90 6 33 13 76 16 95 3 19 8 37 10 39 4
5 244 8 265 3 14 -3 12 -15 -12 -90 -28 -82 -106 -251 -135 -289 -8 -10 -37
-49 -65 -87 -229 -307 -657 -541 -1099 -602 -25 -3 -54 -8 -65 -11 -11 -3
-114 -7 -230 -8 -190 -3 -321 6 -464 30 -20 4 -49 9 -66 11 -77 13 -251 58
-360 95 -458 155 -811 435 -979 776 -89 180 -124 331 -125 538 -1 521 257 986
716 1297 144 96 356 195 523 243 76 22 125 34 154 39 20 3 55 10 78 15 24 6
70 13 103 16 33 3 78 8 100 10 54 6 269 6 325 0 42 -4 119 -13 181 -21 81 -10
256 -54 379 -95 306 -101 611 -273 878 -495 l34 -27 499 -1 c274 -1 500 1 500
4 1 3 2 405 3 893 1 583 -2 891 -9 895 -5 4 -238 7 -517 7 l-506 0 -4 -30z"/>
</g>
</svg>
